<svg width="24" height="24" viewBox="0 0 24 24" fill="none" xmlns="http://www.w3.org/2000/svg">
<path d="M16.0091 14.5701L13.377 11.9417L16.0091 9.31336C16.3717 8.95078 16.3717 8.36226 16.01 7.99869C15.6465 7.63424 15.058 7.63517 14.6945 7.99776L12.0605 10.628L9.42661 7.99776C9.06309 7.63517 8.47457 7.63424 8.11105 7.99869C7.74847 8.36221 7.74847 8.95073 8.11199 9.31336L10.7441 11.9417L8.11199 14.5701C7.74847 14.9326 7.74847 15.5212 8.11105 15.8847C8.29237 16.0669 8.53129 16.1571 8.76932 16.1571C9.00736 16.1571 9.24534 16.066 9.42666 15.8856L12.0606 13.2554L14.6945 15.8856C14.8758 16.0669 15.1138 16.1571 15.3519 16.1571C15.5899 16.1571 15.8288 16.066 16.0101 15.8847C16.3726 15.5212 16.3726 14.9326 16.0091 14.5701Z" fill="black" fill-opacity="0.35"/>
<path d="M12 22.5C6.20101 22.5 1.5 17.799 1.5 12H-1.5C-1.5 19.4558 4.54416 25.5 12 25.5V22.5ZM22.5 12C22.5 17.799 17.799 22.5 12 22.5V25.5C19.4558 25.5 25.5 19.4558 25.5 12H22.5ZM12 1.5C17.799 1.5 22.5 6.20101 22.5 12H25.5C25.5 4.54416 19.4558 -1.5 12 -1.5V1.5ZM12 -1.5C4.54416 -1.5 -1.5 4.54416 -1.5 12H1.5C1.5 6.20101 6.20101 1.5 12 1.5V-1.5Z" fill="white"/>
<path d="M12 22.5C6.20101 22.5 1.5 17.799 1.5 12H-1.5C-1.5 19.4558 4.54416 25.5 12 25.5V22.5ZM22.5 12C22.5 17.799 17.799 22.5 12 22.5V25.5C19.4558 25.5 25.5 19.4558 25.5 12H22.5ZM12 1.5C17.799 1.5 22.5 6.20101 22.5 12H25.5C25.5 4.54416 19.4558 -1.5 12 -1.5V1.5ZM12 -1.5C4.54416 -1.5 -1.5 4.54416 -1.5 12H1.5C1.5 6.20101 6.20101 1.5 12 1.5V-1.5Z" fill="black" fill-opacity="0.75"/>
</svg>
